# xmcd CD database file
#
# Track frame offsets:
#	150
#	15974
#	31499
#	50549
#	68099
#	85499
#	99599
#	117749
#	132524
#	147599
#	170399
#	179924
#	196461
#	213523
#
# Disc length: 3078 seconds
#
# Revision: 0
# Processed by: cddbd v1.5.2PL0 Copyright (c) Steve Scherf et al.
# Submitted via: CDex 1.51
#
DISCID=d80c040e
DTITLE=Me and the Duckdivers - live
DYEAR=2009
DGENRE=Blues
TTITLE0=Come on in my Kitchen
TTITLE1=Alberta
TTITLE2=Crossroad Blues
TTITLE3=I'm ready
TTITLE4=Stingaree
TTITLE5=Fishin' Blues
TTITLE6=Pride and Joy
TTITLE7=Sporting Life Blues
TTITLE8=Nobody Knows You
TTITLE9=Sweet Home Chicago
TTITLE10=Willy and the Handjive
TTITLE11=Dust my Broom
TTITLE12=Got my Mojo Working
TTITLE13=Diving Duck Blues
EXTD=YEAR: 2009
EXTT0=
EXTT1=
EXTT2=
EXTT3=
EXTT4=
EXTT5=
EXTT6=
EXTT7=
EXTT8=
EXTT9=
EXTT10=
EXTT11=
EXTT12=
EXTT13=
PLAYORDER=
